<svg height="512pt" viewBox="-64 0 512 512" width="512pt" xmlns="http://www.w3.org/2000/svg"><path d="m381.988281 495.105469-12.394531-17.132813c-64.875-89.386718-145.601562-200.640625-145.601562-403.304687 0-5.890625-4.777344-10.667969-10.667969-10.667969-5.886719 0-10.664063 4.777344-10.664063 10.667969h-21.335937c0-5.890625-4.777344-10.667969-10.664063-10.667969-5.890625 0-10.667968 4.777344-10.667968 10.667969 0 202.664062-80.726563 313.917969-145.597657 403.304687l-12.398437 17.132813c-2.324219 3.242187-2.644532 7.550781-.828125 11.113281 1.832031 3.5625 5.480469 5.78125 9.492187 5.78125h85.910156c3.027344 0 5.90625-1.300781 7.933594-3.542969 2.027344-2.238281 3.007813-5.246093 2.667969-8.277343-.320313-3.113282-.511719-6.292969-.511719-9.511719 0-47.0625 38.269532-85.335938 85.332032-85.335938s85.332031 38.273438 85.332031 85.335938c0 3.21875-.191407 6.398437-.511719 9.511719-.339844 3.03125.640625 6.019531 2.667969 8.277343 2.027343 2.261719 4.90625 3.542969 7.9375 3.542969h85.90625c3.992187 0 7.660156-2.21875 9.496093-5.78125 1.8125-3.5625 1.515626-7.871094-.832031-11.113281zm-149.355469-136.875c-1.984374 2.792969-5.207031 4.4375-8.640624 4.4375h-64c-3.433594 0-6.65625-1.644531-8.640626-4.4375-2.027343-2.773438-2.558593-6.359375-1.472656-9.601563l21.335938-64c1.449218-4.351562 5.523437-7.296875 10.109375-7.296875h21.335937c4.585938 0 8.660156 2.945313 10.132813 7.296875l21.332031 64c1.066406 3.242188.535156 6.828125-1.492188 9.601563zm0 0" fill="#cfd8dc"/><path d="m222.863281 69.886719-21.335937-42.664063c-3.625-7.210937-15.464844-7.210937-19.09375 0l-21.332032 42.664063c-1.640624 3.308593-1.472656 7.234375.449219 10.371093 1.984375 3.15625 5.417969 5.074219 9.109375 5.074219h42.664063c3.691406 0 7.128906-1.917969 9.089843-5.054687 1.941407-3.15625 2.089844-7.0625.449219-10.390625zm0 0" fill="#607d8b"/><path d="m373.324219 512h-85.90625c-3.03125 0-5.910157-1.300781-7.9375-3.542969-2.027344-2.238281-3.007813-5.246093-2.667969-8.277343.320312-3.113282.511719-6.292969.511719-9.511719 0-47.0625-38.269531-85.335938-85.332031-85.335938s-85.332032 38.273438-85.332032 85.335938c0 3.21875.191406 6.398437.511719 9.511719.339844 3.03125-.640625 6.019531-2.667969 8.277343-2.027344 2.261719-4.90625 3.542969-7.933594 3.542969h-85.910156c-4.011718 0-7.660156-2.21875-9.492187-5.78125-1.816407-3.5625-1.496094-7.851562.828125-11.113281l12.398437-17.132813c64.871094-89.386718 145.597657-200.640625 145.597657-403.304687 0-5.890625 4.777343-10.667969 10.667968-10.667969 5.886719 0 10.664063 4.777344 10.664063 10.667969 0 209.597656-83.007813 323.964843-149.671875 415.828125l-.109375.171875h53.78125c0-58.816407 47.851562-106.667969 106.667969-106.667969 58.816406 0 106.667968 47.851562 106.667968 106.667969h53.78125l-.128906-.171875c-66.644531-91.863282-149.652344-206.230469-149.652344-415.828125 0-5.890625 4.777344-10.667969 10.664063-10.667969 5.890625 0 10.667969 4.777344 10.667969 10.667969 0 202.664062 80.726562 313.917969 145.601562 403.304687l12.394531 17.132813c2.324219 3.242187 2.644531 7.550781.832031 11.113281-1.835937 3.5625-5.503906 5.78125-9.496093 5.78125zm0 0"/><path d="m245.324219 192h-106.664063c-5.890625 0-10.667968-4.777344-10.667968-10.667969 0-5.886719 4.777343-10.664062 10.667968-10.664062h106.664063c5.890625 0 10.667969 4.777343 10.667969 10.664062 0 5.890625-4.777344 10.667969-10.667969 10.667969zm0 0"/><path d="m213.324219 85.332031h-42.664063c-3.691406 0-7.125-1.917969-9.089844-5.054687-1.941406-3.136719-2.109374-7.0625-.445312-10.367188l21.332031-42.667968c3.625-7.210938 15.464844-7.210938 19.09375 0l21.332031 42.667968c1.644532 3.304688 1.472657 7.230469-.449218 10.367188-1.980469 3.136718-5.417969 5.054687-9.109375 5.054687zm-25.40625-21.332031h8.171875l-4.097656-8.148438zm0 0"/><path d="m191.992188 42.667969c-5.886719 0-10.667969-4.78125-10.667969-10.667969v-21.332031c0-5.890625 4.78125-10.667969 10.667969-10.667969 5.886718 0 10.667968 4.777344 10.667968 10.667969v21.332031c0 5.886719-4.78125 10.667969-10.667968 10.667969zm0 0"/><path d="m223.992188 362.667969h-64c-3.433594 0-6.65625-1.644531-8.640626-4.4375-2.027343-2.773438-2.558593-6.359375-1.472656-9.601563l21.335938-64c1.449218-4.351562 5.523437-7.296875 10.109375-7.296875h21.335937c4.585938 0 8.660156 2.945313 10.132813 7.296875l21.332031 64c1.089844 3.242188.535156 6.828125-1.472656 9.601563-2.003906 2.792969-5.226563 4.4375-8.660156 4.4375zm-49.214844-21.335938h34.410156l-14.230469-42.664062h-5.949219zm0 0"/><path d="m319.992188 362.667969h-245.332032c-5.890625 0-10.667968-4.78125-10.667968-10.667969s4.777343-10.667969 10.667968-10.667969h245.332032c5.886718 0 10.667968 4.78125 10.667968 10.667969s-4.78125 10.667969-10.667968 10.667969zm0 0"/></svg>